<mxfile host="app.diagrams.net" agent="Mozilla/5.0 (Macintosh; Intel Mac OS X 10_15_7) AppleWebKit/605.1.15 (KHTML, like Gecko) Version/18.3 Safari/605.1.15" version="26.0.14">
  <diagram name="第 1 页" id="Oy3ZaUuPCGIXvtGQuO8T">
    <mxGraphModel dx="1185" dy="678" grid="0" gridSize="10" guides="1" tooltips="1" connect="1" arrows="1" fold="1" page="1" pageScale="1" pageWidth="827" pageHeight="1169" math="0" shadow="0">
      <root>
        <mxCell id="0" />
        <mxCell id="1" parent="0" />
        <mxCell id="cB7E3Fj2T5_WBY7TSlBW-32" value="" style="rounded=0;whiteSpace=wrap;html=1;dashed=1;" vertex="1" parent="1">
          <mxGeometry x="81" y="129" width="302" height="285" as="geometry" />
        </mxCell>
        <mxCell id="cB7E3Fj2T5_WBY7TSlBW-19" style="edgeStyle=orthogonalEdgeStyle;rounded=0;orthogonalLoop=1;jettySize=auto;html=1;exitX=0;exitY=0.5;exitDx=0;exitDy=0;entryX=0;entryY=0.5;entryDx=0;entryDy=0;strokeWidth=2;fontFamily=Times New Roman;fontStyle=1" edge="1" parent="1" source="cB7E3Fj2T5_WBY7TSlBW-1" target="cB7E3Fj2T5_WBY7TSlBW-2">
          <mxGeometry relative="1" as="geometry" />
        </mxCell>
        <mxCell id="cB7E3Fj2T5_WBY7TSlBW-1" value="中国" style="ellipse;whiteSpace=wrap;html=1;aspect=fixed;strokeWidth=2;fontFamily=Times New Roman;fontStyle=1" vertex="1" parent="1">
          <mxGeometry x="132" y="146" width="50" height="50" as="geometry" />
        </mxCell>
        <mxCell id="cB7E3Fj2T5_WBY7TSlBW-15" style="edgeStyle=orthogonalEdgeStyle;rounded=0;orthogonalLoop=1;jettySize=auto;html=1;exitX=0.5;exitY=0;exitDx=0;exitDy=0;entryX=0.5;entryY=1;entryDx=0;entryDy=0;strokeWidth=2;fontFamily=Times New Roman;fontStyle=1" edge="1" parent="1" source="cB7E3Fj2T5_WBY7TSlBW-2" target="cB7E3Fj2T5_WBY7TSlBW-1">
          <mxGeometry relative="1" as="geometry" />
        </mxCell>
        <mxCell id="cB7E3Fj2T5_WBY7TSlBW-21" style="edgeStyle=orthogonalEdgeStyle;rounded=0;orthogonalLoop=1;jettySize=auto;html=1;exitX=0;exitY=1;exitDx=0;exitDy=0;entryX=0;entryY=0;entryDx=0;entryDy=0;strokeWidth=2;fontFamily=Times New Roman;fontStyle=1" edge="1" parent="1" source="cB7E3Fj2T5_WBY7TSlBW-2" target="cB7E3Fj2T5_WBY7TSlBW-3">
          <mxGeometry relative="1" as="geometry" />
        </mxCell>
        <mxCell id="cB7E3Fj2T5_WBY7TSlBW-2" value="山东省" style="ellipse;whiteSpace=wrap;html=1;aspect=fixed;strokeWidth=2;fontFamily=Times New Roman;fontStyle=1" vertex="1" parent="1">
          <mxGeometry x="132" y="245" width="50" height="50" as="geometry" />
        </mxCell>
        <mxCell id="cB7E3Fj2T5_WBY7TSlBW-12" style="edgeStyle=orthogonalEdgeStyle;rounded=0;orthogonalLoop=1;jettySize=auto;html=1;exitX=0.5;exitY=0;exitDx=0;exitDy=0;strokeWidth=2;fontFamily=Times New Roman;fontStyle=1" edge="1" parent="1" source="cB7E3Fj2T5_WBY7TSlBW-3" target="cB7E3Fj2T5_WBY7TSlBW-2">
          <mxGeometry relative="1" as="geometry">
            <Array as="points">
              <mxPoint x="157" y="328" />
              <mxPoint x="157" y="328" />
            </Array>
          </mxGeometry>
        </mxCell>
        <mxCell id="cB7E3Fj2T5_WBY7TSlBW-3" value="高密市" style="ellipse;whiteSpace=wrap;html=1;aspect=fixed;strokeWidth=2;fontFamily=Times New Roman;fontStyle=1" vertex="1" parent="1">
          <mxGeometry x="132" y="355" width="50" height="50" as="geometry" />
        </mxCell>
        <mxCell id="cB7E3Fj2T5_WBY7TSlBW-13" style="rounded=0;orthogonalLoop=1;jettySize=auto;html=1;exitX=0;exitY=1;exitDx=0;exitDy=0;entryX=1;entryY=0.5;entryDx=0;entryDy=0;strokeWidth=2;fontFamily=Times New Roman;fontStyle=1" edge="1" parent="1" source="cB7E3Fj2T5_WBY7TSlBW-4" target="cB7E3Fj2T5_WBY7TSlBW-3">
          <mxGeometry relative="1" as="geometry" />
        </mxCell>
        <mxCell id="cB7E3Fj2T5_WBY7TSlBW-17" style="edgeStyle=orthogonalEdgeStyle;rounded=0;orthogonalLoop=1;jettySize=auto;html=1;exitX=0.5;exitY=0;exitDx=0;exitDy=0;strokeWidth=2;fontFamily=Times New Roman;fontStyle=1" edge="1" parent="1" source="cB7E3Fj2T5_WBY7TSlBW-4" target="cB7E3Fj2T5_WBY7TSlBW-5">
          <mxGeometry relative="1" as="geometry" />
        </mxCell>
        <mxCell id="cB7E3Fj2T5_WBY7TSlBW-4" value="莫言" style="ellipse;whiteSpace=wrap;html=1;aspect=fixed;strokeWidth=2;fontFamily=Times New Roman;fontStyle=1" vertex="1" parent="1">
          <mxGeometry x="285" y="312" width="52" height="52" as="geometry" />
        </mxCell>
        <mxCell id="cB7E3Fj2T5_WBY7TSlBW-18" style="edgeStyle=orthogonalEdgeStyle;rounded=0;orthogonalLoop=1;jettySize=auto;html=1;exitX=1;exitY=0.5;exitDx=0;exitDy=0;entryX=1;entryY=0.5;entryDx=0;entryDy=0;strokeWidth=2;fontFamily=Times New Roman;fontStyle=1" edge="1" parent="1" source="cB7E3Fj2T5_WBY7TSlBW-5" target="cB7E3Fj2T5_WBY7TSlBW-4">
          <mxGeometry relative="1" as="geometry" />
        </mxCell>
        <mxCell id="cB7E3Fj2T5_WBY7TSlBW-5" value="2012年诺奖" style="ellipse;whiteSpace=wrap;html=1;aspect=fixed;strokeWidth=2;fontFamily=Times New Roman;fontStyle=1" vertex="1" parent="1">
          <mxGeometry x="285" y="183" width="53" height="53" as="geometry" />
        </mxCell>
        <mxCell id="cB7E3Fj2T5_WBY7TSlBW-14" value="" style="rounded=0;orthogonalLoop=1;jettySize=auto;html=1;exitX=0;exitY=0;exitDx=0;exitDy=0;entryX=0.9;entryY=0.74;entryDx=0;entryDy=0;entryPerimeter=0;strokeWidth=2;strokeColor=#FF6666;fontFamily=Times New Roman;fontStyle=1" edge="1" parent="1" source="cB7E3Fj2T5_WBY7TSlBW-4" target="cB7E3Fj2T5_WBY7TSlBW-1">
          <mxGeometry relative="1" as="geometry" />
        </mxCell>
        <mxCell id="cB7E3Fj2T5_WBY7TSlBW-22" value="&lt;span&gt;国籍是&lt;/span&gt;" style="text;html=1;align=center;verticalAlign=middle;whiteSpace=wrap;rounded=0;rotation=50;fontColor=#FF6666;fontFamily=Times New Roman;fontStyle=1" vertex="1" parent="1">
          <mxGeometry x="218" y="242" width="56" height="13" as="geometry" />
        </mxCell>
        <mxCell id="cB7E3Fj2T5_WBY7TSlBW-23" value="赢得了" style="text;html=1;align=center;verticalAlign=middle;whiteSpace=wrap;rounded=0;rotation=90;fontFamily=Times New Roman;fontStyle=1" vertex="1" parent="1">
          <mxGeometry x="300" y="270" width="40" height="19" as="geometry" />
        </mxCell>
        <mxCell id="cB7E3Fj2T5_WBY7TSlBW-24" value="颁布给" style="text;html=1;align=center;verticalAlign=middle;whiteSpace=wrap;rounded=0;rotation=90;fontFamily=Times New Roman;fontStyle=1" vertex="1" parent="1">
          <mxGeometry x="346" y="267" width="40" height="19" as="geometry" />
        </mxCell>
        <mxCell id="cB7E3Fj2T5_WBY7TSlBW-25" value="出生于" style="text;html=1;align=center;verticalAlign=middle;whiteSpace=wrap;rounded=0;rotation=-15;fontFamily=Times New Roman;fontStyle=1" vertex="1" parent="1">
          <mxGeometry x="214" y="348" width="40" height="19" as="geometry" />
        </mxCell>
        <mxCell id="cB7E3Fj2T5_WBY7TSlBW-27" value="坐落于" style="text;html=1;align=center;verticalAlign=middle;whiteSpace=wrap;rounded=0;rotation=90;fontFamily=Times New Roman;fontStyle=1" vertex="1" parent="1">
          <mxGeometry x="146" y="320" width="40" height="19" as="geometry" />
        </mxCell>
        <mxCell id="cB7E3Fj2T5_WBY7TSlBW-28" value="管辖" style="text;html=1;align=center;verticalAlign=middle;whiteSpace=wrap;rounded=0;rotation=90;fontFamily=Times New Roman;fontStyle=1" vertex="1" parent="1">
          <mxGeometry x="109" y="312" width="40" height="19" as="geometry" />
        </mxCell>
        <mxCell id="cB7E3Fj2T5_WBY7TSlBW-30" value="隶属于" style="text;html=1;align=center;verticalAlign=middle;whiteSpace=wrap;rounded=0;rotation=90;fontFamily=Times New Roman;fontStyle=1" vertex="1" parent="1">
          <mxGeometry x="146" y="217" width="40" height="19" as="geometry" />
        </mxCell>
        <mxCell id="cB7E3Fj2T5_WBY7TSlBW-31" value="管理" style="text;html=1;align=center;verticalAlign=middle;whiteSpace=wrap;rounded=0;rotation=90;fontFamily=Times New Roman;fontStyle=1" vertex="1" parent="1">
          <mxGeometry x="81" y="205" width="40" height="19" as="geometry" />
        </mxCell>
      </root>
    </mxGraphModel>
  </diagram>
</mxfile>
